<svg width="102" height="98" viewBox="0 0 102 98" fill="none" xmlns="http://www.w3.org/2000/svg">
<path d="M9.54546 60.7273L11.8485 11.6364M11.8485 11.6364L51 23.6364V72.7273L9.54546 60.7273L11.8485 11.6364Z" stroke="white" stroke-width="5"/>
<path d="M92.4545 60.7273L90.1515 11.6364M90.1515 11.6364L51 23.6364V72.7273L92.4545 60.7273L90.1515 11.6364Z" stroke="white" stroke-width="5"/>
<path d="M54.2727 80.3636L25.9091 71.9149M54.2727 80.3636L25.8965 94.5518C24.6312 95.1844 23.0959 94.8472 22.2122 93.7426L20.4105 91.4904C19.7599 90.6771 19.5776 89.5847 19.9289 88.6043L25.9091 71.9149M54.2727 80.3636L72.5106 93.5354C73.3765 94.1608 74.5095 94.2786 75.4855 93.8448L81.0731 91.3615C82.5526 90.7039 83.2435 88.9909 82.6341 87.4909L76.6364 72.7273M54.2727 80.3636L76.6364 72.7273M25.9091 71.9149L3 65.0909L6.27273 4C23.3138 9.53834 32.868 12.6435 49.9091 18.1818L96.8182 6.18182L99 65.0909L76.6364 72.7273" stroke="white" stroke-width="5"/>
</svg>
