<svg width="102" height="107" viewBox="0 0 102 107" fill="none" xmlns="http://www.w3.org/2000/svg">
<path d="M34.5994 46.5331L52.0426 28.0638L69.766 46.8298L86.7675 61.9423C87.9278 62.9737 88.8321 64.2611 89.4087 65.7025L94.072 77.3609C94.5445 78.5421 94.7872 79.8026 94.7872 81.0748V95.8298H7.21277V80.7717C7.21277 79.6969 7.38605 78.6291 7.72594 77.6094L11.4508 66.4347C12.0859 64.5295 13.2799 62.8597 14.8772 61.6427L33.9945 47.0771C34.2106 46.9125 34.4129 46.7306 34.5994 46.5331Z" stroke="white" stroke-width="3"/>
<path d="M55.6762 17.6809L61.4255 15.6334L59.4589 19.1353C59.2705 19.4708 59.0193 19.7669 58.719 20.0075L56.7254 21.6049C56.3609 21.897 55.9332 22.0999 55.4764 22.1975L52.9547 22.7364C52.5998 22.8122 52.234 22.823 51.8752 22.7682L48.1908 22.2059C47.5253 22.1043 46.9133 21.7818 46.4532 21.2903L44.5701 19.2785C44.2999 18.9899 44.0895 18.6506 43.9508 18.2803L42.9232 15.5356C42.7501 15.0733 42.6938 14.5754 42.7592 14.0861L43.334 9.78766C43.3844 9.4111 43.5058 9.04753 43.6918 8.71627L45.233 5.97203C45.5132 5.47301 45.9304 5.06457 46.4352 4.7949L48.6647 3.60393L52.4179 2L47.8425 7.58658C47.4033 8.12274 47.1634 8.7944 47.1634 9.48743V11.4268C47.1634 12.0751 47.3734 12.706 47.762 13.225L49.6235 15.711C49.9773 16.1834 50.4625 16.541 51.0185 16.739L53.6633 17.6809C54.3143 17.9127 55.0253 17.9127 55.6762 17.6809Z" stroke="white" stroke-width="3"/>
<path d="M52.0426 22.8511V28.0638M7.21277 95.8298H2V105.213H100V95.8298H93.7447" stroke="white" stroke-width="3"/>
</svg>
