<svg width="80" height="110" viewBox="0 0 80 110" fill="none" xmlns="http://www.w3.org/2000/svg">
<path d="M44.3074 33.7734L44.7778 34.7844L45.2376 35.7725L46.3194 35.6406L47.4263 35.5056L46.6101 36.2654L45.8125 37.008L46.2723 37.9961L46.7427 39.0071L45.7679 38.4657L44.8151 37.9365L44.0175 38.6791L43.2013 39.439L43.415 38.3445L43.6238 37.2749L42.6711 36.7458L41.6962 36.2044L42.8031 36.0694L43.8849 35.9375L44.0937 34.8678L44.3074 33.7734Z" stroke="#FFFDFD" stroke-width="3"/>
<path d="M44.7265 47.4061L52.6528 44.764L49.9968 49.1906C49.7971 49.5234 49.5348 49.8143 49.2243 50.0471L46.2944 52.2446C45.936 52.5133 45.522 52.6984 45.0827 52.7863L41.3233 53.5382C40.9898 53.6049 40.6474 53.6144 40.3107 53.5663L34.9066 52.7943C34.264 52.7025 33.6686 52.4047 33.2096 51.9457L30.4076 49.1438C30.1204 48.8565 29.8944 48.5139 29.7435 48.1367L28.2978 44.5224C28.1027 44.0346 28.0391 43.5041 28.1134 42.984L28.9004 37.4748C28.957 37.079 29.0921 36.6984 29.2978 36.3556L31.495 32.6936C31.7885 32.2044 32.2155 31.809 32.7258 31.5538L35.8889 29.9723L40.8194 28.0001L34.6589 35.0406C34.1804 35.5875 33.9167 36.2895 33.9167 37.0162V39.7672C33.9167 40.4484 34.1485 41.1093 34.5741 41.6412L37.3077 45.0583C37.6689 45.5098 38.153 45.8474 38.7016 46.0302L42.8291 47.4061C43.4449 47.6113 44.1107 47.6113 44.7265 47.4061Z" stroke="#FFFDFD" stroke-width="3"/>
<path d="M38.9444 93H16.7778M16.7778 93H14.6667H5C3.34315 93 2 91.6569 2 90V87.7701V5C2 3.34315 3.34315 2 5 2H75C76.6569 2 78 3.34315 78 5V76.4023C78 78.0592 76.6569 79.4023 75 79.4023H16.7778L12.1158 82.7021C10.6595 83.7328 10.4193 85.7991 11.6002 87.1365L16.7778 93ZM50.5556 93H78L63.0447 88.2847C60.3281 87.4282 60.2225 83.6228 62.8873 82.6168L76.9444 77.3103" stroke="#FFFDFD" stroke-width="3"/>
<path d="M39 105V85H50V105L44.5 98.6842L39 105Z" stroke="#FFFDFD" stroke-width="3"/>
<rect x="15.5" y="15.5" width="52" height="51" stroke="#FFFDFD" stroke-width="3"/>
</svg>
