<svg width="163" height="104" viewBox="0 0 163 104" fill="none" xmlns="http://www.w3.org/2000/svg">
<path d="M6.48978 23.3923L80.9046 0.185686C81.2923 0.0647672 81.7077 0.0647671 82.0954 0.185686L156.51 23.3923C164.001 25.7284 164.001 36.3306 156.51 38.6668L82.0954 61.8733C81.7077 61.9942 81.2923 61.9942 80.9046 61.8733L22.456 43.6459C22.456 43.6459 18.6823 46.2053 17.9021 48.7607C17.3575 50.5441 17.9021 53.5344 17.9021 53.5344C17.9021 53.5344 21.3213 57.6262 20.9794 61.0361C20.6375 64.4459 19.9528 64.9968 17.9021 67.5148L24.4615 97.9465C25.1328 101.061 22.7594 104 19.5738 104H6.02957C2.82556 104 0.44836 101.029 1.15143 97.9028L7.98625 67.5148C5.82301 65.6622 4.80864 64.4611 4.56701 61.0361C4.52498 58.1816 5.10938 56.5535 8.6701 53.5344C8.6701 53.5344 8.65623 49.1849 10.0378 46.7148C11.4194 44.2447 12.4382 43.0314 14.8247 41.266L6.48977 38.6668C-1.00128 36.3306 -1.00128 25.7284 6.48978 23.3923Z" fill="white"/>
<path d="M81.5 70.2426L33.9725 56.6033L30.5533 88.9967C40.7914 99.6945 54.1722 102.568 81.8419 104C112.266 102.789 124.841 99.9337 133.131 87.9738L129.027 56.6033L81.5 70.2426Z" fill="white"/>
</svg>
